<svg viewBox="0 0 200 200" xmlns="http://www.w3.org/2000/svg">
  <path fill="#F2F4F8" d="M43.1,-72.6C56.3,-67,67.7,-56.3,75.9,-43.4C84.1,-30.5,89,-15.2,88.3,-0.4C87.6,14.4,81.2,28.8,72.1,40.2C63.1,51.6,51.3,60,38.8,66.5C26.3,73,13.2,77.5,0.2,77.1C-12.7,76.7,-25.5,71.5,-39.8,66C-54.1,60.6,-69.9,55.1,-79.7,44C-89.5,33,-93.3,16.5,-90,1.9C-86.7,-12.7,-76.4,-25.4,-67.1,-37.3C-57.7,-49.1,-49.3,-60,-38.3,-66.8C-27.3,-73.7,-13.6,-76.6,0.7,-77.8C14.9,-78.9,29.9,-78.3,43.1,-72.6Z" transform="translate(100 100)" />
</svg>